<svg width="69" height="12" viewBox="0 0 69 12" fill="none" xmlns="http://www.w3.org/2000/svg">
    <path d="m40.985 11.997 7.28-.007V9.982H43.23v-6L40.985 0v11.997z" fill="url(#7iy94l4t9a)"/>
    <path d="M57.594.013H50.3l1.169 2.008h6.125V.013z" fill="url(#gd4acviqgb)"/>
    <path d="M57.594 11.99H50.3l1.169-2.008h6.125v2.008z" fill="url(#zfy88pe8tc)"/>
    <path d="M57.594 7.036H50.3V5.028h7.294v2.008z" fill="url(#snicu8sqjd)"/>
    <path d="M10.047 12 7.57 7.7c.71-.285 1.3-.764 1.768-1.439.484-.674.71-1.423.71-2.262 0-1.094-.393-2.023-1.178-2.817A3.896 3.896 0 0 0 6.028.013H.75l1.169 2.008h4.109c.544 0 1.012.195 1.405.585.408.39.605.854.605 1.393 0 .554-.197 1.034-.605 1.423-.393.39-.861.585-1.405.585L4.23 5.992 7.735 12h2.312z" fill="url(#lsdx3fv4be)"/>
    <path d="m68.927 12-2.478-4.3c.71-.285 1.3-.764 1.768-1.439.483-.674.71-1.423.71-2.262 0-1.094-.393-2.023-1.179-2.817a3.896 3.896 0 0 0-2.84-1.169H59.63l1.169 2.008h4.109c.544 0 1.012.195 1.405.585.408.39.604.854.604 1.393 0 .554-.196 1.034-.604 1.423-.393.39-.861.585-1.405.585l-1.798-.015L66.615 12h2.312z" fill="url(#hvwfn6yhlf)"/>
    <path d="m14.945 11.997-2.246-3.983V.004L14.945 0v11.997z" fill="url(#jrj1jlht9g)"/>
    <path d="M31.637 11.997V8.012h3.294c1.103 0 2.055-.39 2.84-1.169.801-.78 1.179-1.738 1.179-2.832 0-1.094-.393-2.037-1.179-2.832a3.896 3.896 0 0 0-2.84-1.168h-5.332l1.168 2.007h4.164c.544 0 1.012.195 1.405.585.408.39.604.869.604 1.408 0 .555-.211 1.02-.604 1.409-.393.39-.861.584-1.405.584h-5.304v5.993h2.01z" fill="url(#d8ma0tpl1h)"/>
    <path d="M20.25 11.997V8.012h3.295c1.103 0 2.055-.39 2.84-1.169.801-.78 1.179-1.738 1.179-2.832 0-1.094-.393-2.037-1.178-2.832A3.897 3.897 0 0 0 23.544.011h-5.332l1.168 2.007h4.164c.544 0 1.012.195 1.405.585.408.39.604.869.604 1.408 0 .555-.211 1.02-.604 1.409-.393.39-.861.584-1.405.584H18.24v5.993h2.01z" fill="url(#ouvu5kmg6i)"/>
    <defs>
        <linearGradient id="7iy94l4t9a" x1=".75" y1="12" x2="69.445" y2="5.36" gradientUnits="userSpaceOnUse">
            <stop stop-color="#7E7E7E"/>
            <stop offset="1" stop-color="#B0B0B0"/>
        </linearGradient>
        <linearGradient id="gd4acviqgb" x1=".75" y1="12" x2="69.445" y2="5.36" gradientUnits="userSpaceOnUse">
            <stop stop-color="#7E7E7E"/>
            <stop offset="1" stop-color="#B0B0B0"/>
        </linearGradient>
        <linearGradient id="zfy88pe8tc" x1=".75" y1="12" x2="69.445" y2="5.36" gradientUnits="userSpaceOnUse">
            <stop stop-color="#7E7E7E"/>
            <stop offset="1" stop-color="#B0B0B0"/>
        </linearGradient>
        <linearGradient id="snicu8sqjd" x1=".75" y1="12" x2="69.445" y2="5.36" gradientUnits="userSpaceOnUse">
            <stop stop-color="#7E7E7E"/>
            <stop offset="1" stop-color="#B0B0B0"/>
        </linearGradient>
        <linearGradient id="lsdx3fv4be" x1=".75" y1="12" x2="69.445" y2="5.36" gradientUnits="userSpaceOnUse">
            <stop stop-color="#7E7E7E"/>
            <stop offset="1" stop-color="#B0B0B0"/>
        </linearGradient>
        <linearGradient id="hvwfn6yhlf" x1=".75" y1="12" x2="69.445" y2="5.36" gradientUnits="userSpaceOnUse">
            <stop stop-color="#7E7E7E"/>
            <stop offset="1" stop-color="#B0B0B0"/>
        </linearGradient>
        <linearGradient id="jrj1jlht9g" x1=".75" y1="12" x2="69.445" y2="5.36" gradientUnits="userSpaceOnUse">
            <stop stop-color="#7E7E7E"/>
            <stop offset="1" stop-color="#B0B0B0"/>
        </linearGradient>
        <linearGradient id="d8ma0tpl1h" x1=".75" y1="12" x2="69.445" y2="5.36" gradientUnits="userSpaceOnUse">
            <stop stop-color="#7E7E7E"/>
            <stop offset="1" stop-color="#B0B0B0"/>
        </linearGradient>
        <linearGradient id="ouvu5kmg6i" x1=".75" y1="12" x2="69.445" y2="5.36" gradientUnits="userSpaceOnUse">
            <stop stop-color="#7E7E7E"/>
            <stop offset="1" stop-color="#B0B0B0"/>
        </linearGradient>
    </defs>
</svg>
